<svg xmlns="http://www.w3.org/2000/svg" xmlns:xlink="http://www.w3.org/1999/xlink" version="1.1" width="24.5" height="28" data-code="61579" data-tags="sign-out"><rect id="backgroundrect" width="100%" height="100%" x="0" y="0" fill="none" stroke="none"/><g class="currentLayer" style=""><title>Layer 1</title><g fill="#eb1a1a" transform="scale(0.02734375) " id="svg_1" class="selected" fill-opacity="1"><path d="M365.714 822.857c0 16 7.429 54.857-18.286 54.857h-182.857c-90.857 0-164.571-73.714-164.571-164.571v-402.286c0-90.857 73.714-164.571 164.571-164.571h182.857c9.714 0 18.286 8.571 18.286 18.286 0 16 7.429 54.857-18.286 54.857h-182.857c-50.286 0-91.429 41.143-91.429 91.429v402.286c0 50.286 41.143 91.429 91.429 91.429h164.571c14.286 0 36.571-2.857 36.571 18.286zM896 512c0 9.714-4 18.857-10.857 25.714l-310.857 310.857c-6.857 6.857-16 10.857-25.714 10.857-20 0-36.571-16.571-36.571-36.571v-164.571h-256c-20 0-36.571-16.571-36.571-36.571v-219.429c0-20 16.571-36.571 36.571-36.571h256v-164.571c0-20 16.571-36.571 36.571-36.571 9.714 0 18.857 4 25.714 10.857l310.857 310.857c6.857 6.857 10.857 16 10.857 25.714z" id="svg_2" fill="#eb1a1a" fill-opacity="1"/></g></g></svg>