<svg xmlns="http://www.w3.org/2000/svg" version="1.1" width="512" height="512" stroke="#444" style=""><rect id="backgroundrect" width="100%" height="100%" x="0" y="0" fill="none" stroke="none" class="" style=""/>
<title/>


<g class="currentLayer" style=""><title>Layer 1</title><g id="icomoon-ignore" class="">
</g><path storke="#444" d="M256,0.7246376872062683 c-141.385,0 -256,114.615 -256,256 s114.615,256 256,256 s256,-114.615 256,-256 s-114.615,-256 -256,-256 zM256,448.72463768720627 c-106.039,0 -192,-85.961 -192,-192 s85.961,-192 192,-192 c106.039,0 192,85.961 192,192 s-85.961,192 -192,192 z" id="svg_1" class="" fill="#6d6d6d" fill-opacity="1" stroke="#ffffff" stroke-opacity="1"/><path fill="#ffffff" fill-opacity="1" stroke="#222222" stroke-opacity="1" stroke-width="2" stroke-dasharray="none" stroke-linejoin="round" stroke-linecap="butt" stroke-dashoffset="" fill-rule="nonzero" opacity="1" marker-start="" marker-mid="" marker-end="" d="M224,225 C224,225 224,225 224,225 C224,225 224,225 224,225 C224,225 224,225 224,225 C224,225 224,225 224,225 Z" id="svg_8"/><path fill="#ffffff" fill-opacity="1" stroke="#ffffff" stroke-opacity="1" stroke-width="2" stroke-dasharray="none" stroke-linejoin="round" stroke-linecap="butt" stroke-dashoffset="" fill-rule="nonzero" opacity="1" marker-start="" marker-mid="" marker-end="" d="M53.15942429090933,255.99999449926702 C53.15942429090933,146.39954733982125 143.93338443341378,57.623185140670216 256.0000018932958,57.623185140670216 C368.0666193531778,57.623185140670216 458.8405794956823,146.39954733982125 458.8405794956823,255.99999449926702 C458.8405794956823,365.6004416587128 368.0666193531778,454.3768038578638 256.0000018932958,454.3768038578638 C143.93338443341378,454.3768038578638 53.15942429090933,365.6004416587128 53.15942429090933,255.99999449926702 z" id="svg_2" class=""/><path fill="#6d6d6d" fill-opacity="1" stroke="#ffffff" stroke-opacity="1" stroke-width="2" stroke-dasharray="none" stroke-linejoin="round" stroke-linecap="butt" stroke-dashoffset="" fill-rule="nonzero" opacity="1" marker-start="" marker-mid="" marker-end="" d="M102.21014404296875,256.0000001192093 C102.21014404296875,169.47985878899613 171.03323094028138,99.39854431152344 256.0000048875809,99.39854431152344 C340.96677883488036,99.39854431152344 409.789865732193,169.47985878899613 409.789865732193,256.0000001192093 C409.789865732193,342.52014144942245 340.96677883488036,412.60145592689514 256.0000048875809,412.60145592689514 C171.03323094028138,412.60145592689514 102.21014404296875,342.52014144942245 102.21014404296875,256.0000001192093 z" id="svg_7" class=""/></g></svg>