<!-- Generated by IcoMoon.io -->
<svg version="1.1" xmlns="http://www.w3.org/2000/svg" width="439" height="512" viewBox="0 0 439 512">
<title></title>
<g id="icomoon-ignore">
</g>
<path fill="#000" d="M365.714 274.286v-36.572c0-10-8.286-18.286-18.286-18.286h-91.428v-91.428c0-10-8.286-18.285-18.286-18.285h-36.572c-10 0-18.286 8.285-18.286 18.285v91.428h-91.428c-10 0-18.285 8.286-18.285 18.286v36.572c0 10 8.285 18.286 18.285 18.286h91.428v91.428c0 10 8.286 18.286 18.286 18.286h36.572c10 0 18.286-8.286 18.286-18.286v-91.428h91.428c10 0 18.286-8.286 18.286-18.286zM438.857 118.857v274.286c0 45.428-36.857 82.286-82.286 82.286h-274.286c-45.428 0-82.285-36.857-82.285-82.286v-274.286c0-45.428 36.857-82.285 82.285-82.285h274.286c45.428 0 82.286 36.857 82.286 82.285z"></path>
</svg>
